<?xml version="1.0" standalone="no"?>
<!DOCTYPE svg PUBLIC "-//W3C//DTD SVG 20010904//EN"
 "http://www.w3.org/TR/2001/REC-SVG-20010904/DTD/svg10.dtd">
<svg version="1.0" xmlns="http://www.w3.org/2000/svg"
 width="125.000000pt" height="125.000000pt" viewBox="0 0 125.000000 125.000000"
 preserveAspectRatio="xMidYMid meet">
<metadata>
Created by potrace 1.11, written by Peter Selinger 2001-2013
</metadata>
<g transform="translate(0.000000,125.000000) scale(0.100000,-0.100000)"
fill="#000000" stroke="none">
<path d="M83 1180 c-88 -53 -81 -180 12 -221 85 -38 179 18 179 107 0 38 -2
41 -29 46 -16 2 -19 -2 -17 -21 9 -59 -45 -110 -102 -95 -57 14 -76 92 -31
134 l25 23 497 1 c484 1 498 0 528 -19 56 -38 41 -125 -24 -138 -17 -4 -42 -1
-56 5 -26 12 -51 68 -41 93 8 23 -10 27 -34 7 -20 -16 -21 -21 -11 -59 12 -43
58 -92 89 -94 76 -7 121 14 147 68 30 61 10 128 -48 163 -31 19 -54 20 -542
20 -488 0 -511 -1 -542 -20z"/>
<path d="M310 1085 c0 -38 35 -43 315 -43 280 0 315 5 315 43 0 13 -44 15
-315 15 -271 0 -315 -2 -315 -15z"/>
<path d="M404 982 c-9 -5 -12 -96 -11 -319 l0 -313 29 0 28 0 0 320 c0 298 -1
320 -17 320 -10 0 -23 -4 -29 -8z"/>
<path d="M489 943 c-1 -65 -1 -271 0 -305 1 -24 5 -28 29 -28 l27 0 0 188 0
188 -27 2 c-27 2 -28 0 -29 -45z"/>
<path d="M587 984 c-4 -4 -7 -148 -7 -321 l0 -313 30 0 30 0 -2 318 c-3 311
-3 317 -23 320 -12 2 -24 0 -28 -4z"/>
<path d="M690 668 l0 -318 30 0 30 0 0 318 0 318 -30 0 -30 0 0 -318z"/>
<path d="M800 869 l0 -119 29 0 28 0 -1 117 -1 118 -27 2 -28 2 0 -120z"/>
<path d="M794 571 c3 -24 6 -84 6 -132 l0 -89 29 0 28 0 0 130 c0 72 -3 130
-6 131 -61 8 -63 7 -57 -40z"/>
<path d="M329 272 c-26 -18 -24 -42 4 -43 91 -3 609 0 613 3 2 3 -4 16 -15 29
l-19 23 -282 1 c-220 0 -286 -2 -301 -13z"/>
<path d="M241 159 c-17 -4 -38 -13 -47 -20 -15 -12 -44 -68 -44 -84 0 -3 214
-5 475 -5 261 0 475 2 475 5 0 3 -6 21 -14 40 -29 68 -25 68 -441 69 -206 1
-388 -2 -404 -5z"/>
</g>
</svg>
